<?xml version="1.0" encoding="UTF-8" standalone="no"?>
<svg
   version="1.0"
   width="512.000000pt"
   height="512.000000pt"
   viewBox="0 0 512.000000 512.000000"
   preserveAspectRatio="xMidYMid meet"
   id="svg4738"
   xmlns="http://www.w3.org/2000/svg"
   xmlns:svg="http://www.w3.org/2000/svg">
  <defs
     id="defs5970" />
  <metadata
     id="metadata5973">
Created by potrace 1.16, written by Peter Selinger 2001-2019
</metadata>
  <g
     fill="currentColor"
     stroke="none"
     id="g4736"
     transform="matrix(0.09999941,0,0,-0.09999941,0.00144988,511.99987)">
    <path
       d="m 3787,5035 c -59,-47 -110,-85 -114,-85 -3,0 -21,14 -41,31 -20,18 -60,43 -90,57 -141,64 -320,-14 -492,-214 l -53,-61 -151,-1 c -88,-1 -188,-8 -241,-17 -237,-42 -531,-154 -1046,-400 -131,-63 -268,-123 -306,-135 C 895,4099 372,4179 57,4392 l -57,39 v -956 -956 l 32,5 c 18,3 60,8 93,12 76,8 212,47 275,79 27,14 52,25 56,25 4,0 4,-26 1,-57 -7,-70 -65,-189 -136,-283 -49,-64 -211,-228 -284,-286 l -38,-31 3,-161 3,-162 170,142 c 545,453 706,615 1044,1059 74,96 148,189 165,208 70,75 324,261 661,484 335,221 515,302 515,230 0,-10 -23,-121 -51,-248 -31,-140 -53,-266 -56,-322 -5,-88 -5,-92 20,-117 22,-22 30,-24 53,-16 20,8 29,8 35,-1 3,-6 7,-95 6,-198 0,-102 6,-227 12,-277 9,-70 10,-115 1,-195 -6,-57 -13,-106 -16,-110 -7,-12 52,-83 104,-128 l 52,-43 v -161 c 0,-179 10,-259 42,-357 l 22,-65 8,64 c 10,89 58,256 118,410 51,130 70,158 70,102 0,-36 38,-167 96,-336 51,-145 51,-151 13,-325 l -21,-95 h -97 c -81,0 -104,-4 -144,-24 -61,-29 -127,-79 -244,-183 l -93,-81 v -68 -67 l -207,-8 c -115,-5 -309,-8 -433,-8 -256,1 -300,7 -590,83 -102,27 -197,52 -213,55 C 997,1076 785,1012 649,945 545,894 491,858 416,790 338,718 311,678 146,392 L 0,138 V 69 0 h 2381 c 1901,0 2379,3 2373,13 -21,34 -152,206 -237,309 -53,65 -110,145 -127,178 -17,33 -59,103 -95,155 -36,53 -65,100 -65,104 0,4 64,16 141,25 253,31 333,69 499,236 58,58 138,135 178,171 l 72,67 v 1931 1931 h -612 l -613,-1 z m -97,-2000 c 178,-7 285,-47 377,-141 56,-58 117,-171 128,-239 l 7,-40 -64,68 c -35,37 -69,67 -76,67 -7,0 -12,-14 -12,-36 0,-49 -27,-148 -55,-204 -26,-51 -91,-115 -133,-131 -15,-6 -58,-10 -96,-10 -139,0 -206,67 -206,205 0,78 9,118 47,219 15,37 23,70 20,73 -21,21 -124,-45 -160,-103 -33,-52 -48,-103 -56,-187 l -7,-71 -12,40 c -28,95 -10,239 47,376 l 28,67 -43,12 c -24,7 -51,21 -60,31 -18,20 -46,20 326,4 z m 857,-1442 c 18,-45 12,-132 -12,-170 -27,-41 -111,-66 -159,-47 -28,11 -17,42 28,79 44,35 86,112 86,154 0,38 39,26 57,-16 z"
       id="path4734" />
  </g>
</svg>
